<svg id="Layer_1" data-name="Layer 1" xmlns="http://www.w3.org/2000/svg" viewBox="0 0 51.51 261.42"><defs><style>.cls-1{fill:#b7b4a7;}.cls-2{fill:#e0c877;}.cls-3{fill:#393030;}</style></defs><path class="cls-1" d="M51.51,257.09c0,2.39-11.53,4.33-25.75,4.33S0,259.48,0,257.09s11.53-4.32,25.76-4.32S51.51,254.71,51.51,257.09Z"/><polygon class="cls-2" points="17.38 54.07 10.41 25.07 17.38 23.04 33.67 23.27 40.99 24.71 34.58 54.07 29.63 52.95 21.99 52.84 17.38 54.07"/><path class="cls-3" d="M38.05,242.44l-3.9-38.82s-3.28-3.07-.9-5.39a5.17,5.17,0,0,0,.9-2.46,3.14,3.14,0,0,0-.9-2s-3-1.95-.81-4.65l-1.59-2.7V133.92s2.55-1,2.55-2.69c0-1.2-2.53-2.25-2.53-2.25h0V56.6a31.46,31.46,0,0,0,4.65-1.22l6.18-30.53,1.1.22,2.81-.9L37.79,22c-.81-.9-2.63-3.19-2.71-5.55l-1.91-.67s-2-5.58-6.47-6.75a2.17,2.17,0,0,1,.77-2.66L26.35,4.84a4.42,4.42,0,0,0-1-4.84,4.69,4.69,0,0,0-.64,5L23.8,6.41A2.23,2.23,0,0,1,24.62,9c-4.5,1.14-6.52,6.77-6.52,6.77l-1.91.67c-.1,2.61-2.3,4.76-2.92,5.32L5.68,24.17l2.59.9,1.32-.25,7.24,30.59a20.68,20.68,0,0,0,3.83,1.15V129s-2.55.75-2.55,2.25,2.55,2.69,2.55,2.69v52.46l-1.59,2.7c2.16,2.7-.81,4.65-.81,4.65a3.52,3.52,0,0,0-.9,2,5.79,5.79,0,0,0,.9,2.46c2.38,2.73-.9,5.39-.9,5.39l-3.89,38.82v6.75l-4.8,3.45v5.09H42.84v-5.09l-4.79-3.45ZM32,24.17,29.48,52.4H22l-3.7-28.22Zm2.09,29.05-2.83-.64,2.53-28.23,5.89,1.2Zm-16,0L11.61,25.51l4.9-1.14,3.7,28.25Z"/></svg>